<svg xmlns="http://www.w3.org/2000/svg" viewBox="0 0 28.79 28.81"><defs><style>.cls-1{fill:#15fed4;}</style></defs><g id="Capa_2" data-name="Capa 2"><g id="Capa_1-2" data-name="Capa 1"><path class="cls-1" d="M14.45,0H0V14.41A14.4,14.4,0,1,0,14.45,0Zm-.06,24.85A10.43,10.43,0,0,1,4,14.41V4H14.43a10.44,10.44,0,0,1,0,20.88Z"/><path class="cls-1" d="M9.23,8.79,9,13.94A5.14,5.14,0,1,0,14.38,9Zm8.64,5.52A3.73,3.73,0,0,1,10.42,14l.16-3.73,3.74.15A3.74,3.74,0,0,1,17.87,14.31Z"/><path class="cls-1" d="M14.32,10.42A3.73,3.73,0,1,1,10.42,14l.16-3.73Z"/></g></g></svg>