<svg xmlns="http://www.w3.org/2000/svg" xmlns:xlink="http://www.w3.org/1999/xlink" viewBox="0 0 85.28 25.26"><defs><style>.cls-1{fill:none;}.cls-2{clip-path:url(#clip-path);}.cls-3{fill:#15fed4;}.cls-4{font-size:22.11px;font-family:PPNeueMontreal-Bold, PP Neue Montreal;font-weight:700;letter-spacing:-0.02em;}.cls-5{letter-spacing:0em;}</style><clipPath id="clip-path" transform="translate(-3.22 -5.52)"><rect class="cls-1" width="96" height="32"/></clipPath></defs><g id="Capa_2" data-name="Capa 2"><g id="Capa_1-2" data-name="Capa 1"><g class="cls-2"><path class="cls-3" d="M13,6.68H3.23v9.79A9.78,9.78,0,1,0,13,6.68Zm0,16.87a7.09,7.09,0,0,1-7.08-7.09V9.37H13a7.09,7.09,0,0,1,0,14.18Z" transform="translate(-3.22 -5.52)"/><path class="cls-3" d="M9.49,12.64l-.15,3.5A3.49,3.49,0,1,0,13,12.79Zm5.87,3.75a2.53,2.53,0,1,1-5.06-.21l.11-2.53,2.54.1A2.54,2.54,0,0,1,15.36,16.39Z" transform="translate(-3.22 -5.52)"/><path class="cls-3" d="M13,13.75a2.54,2.54,0,1,1-2.65,2.43l.11-2.53Z" transform="translate(-3.22 -5.52)"/><text class="cls-4" transform="translate(20.9 18.96)">B<tspan class="cls-5" x="14.86" y="0">ymia</tspan></text></g></g></g></svg>